<svg xmlns="http://www.w3.org/2000/svg" width="66" height="66" viewBox="0 0 66 66">
    <g fill="none" fill-rule="evenodd">
        <circle cx="33" cy="33" r="33" fill="#FFF"/>
        <path fill="#9B9B9B" fill-rule="nonzero" d="M15.93 24.655a5.662 5.662 0 0 0 5.655 5.656 5.662 5.662 0 0 0 5.656-5.656A5.662 5.662 0 0 0 21.585 19a5.661 5.661 0 0 0-5.655 5.655zm9.964 0a4.313 4.313 0 0 1-4.308 4.308 4.313 4.313 0 0 1-4.308-4.308 4.313 4.313 0 0 1 4.308-4.307 4.313 4.313 0 0 1 4.308 4.307zM19.44 33.31a5.097 5.097 0 0 0-5.092 5.092H13a6.446 6.446 0 0 1 6.44-6.44h4.292c.399 0 .789.038 1.168.109a.67.67 0 0 1 .519.811.675.675 0 0 1-.786.508 5.062 5.062 0 0 0-.901-.08H19.44zm24.975-3a5.662 5.662 0 0 1-5.656-5.655A5.662 5.662 0 0 1 44.415 19a5.662 5.662 0 0 1 5.655 5.655 5.662 5.662 0 0 1-5.655 5.656zm0-9.962a4.313 4.313 0 0 0-4.308 4.307 4.313 4.313 0 0 0 4.308 4.308 4.313 4.313 0 0 0 4.307-4.308 4.312 4.312 0 0 0-4.307-4.307zm2.145 11.614a6.446 6.446 0 0 1 6.44 6.44h-1.347a5.097 5.097 0 0 0-5.092-5.092h-4.293c-.308 0-.61.028-.904.081a.675.675 0 0 1-.79-.518.67.67 0 0 1 .522-.801c.38-.072.772-.11 1.172-.11h4.292zm-13.703 7.004a5.662 5.662 0 0 1-5.655-5.654c0-.9.216-1.746.59-2.5a5.656 5.656 0 0 1 5.065-3.156c2.491 0 4.607 1.62 5.36 3.862.189.564.296 1.166.296 1.793a5.662 5.662 0 0 1-5.656 5.655zm0-9.963a4.313 4.313 0 0 0-4.307 4.308 4.313 4.313 0 0 0 4.307 4.308 4.313 4.313 0 0 0 4.308-4.308 4.313 4.313 0 0 0-4.308-4.308zm2.147 11.615c3.55 0 6.44 2.89 6.44 6.44h-1.348a5.098 5.098 0 0 0-5.092-5.093h-4.292a5.098 5.098 0 0 0-5.092 5.093h-1.348a6.447 6.447 0 0 1 6.44-6.44h4.292z"/>
    </g>
</svg>
