<svg xmlns="http://www.w3.org/2000/svg" width="66" height="66" viewBox="0 0 66 66">
    <g fill="none" fill-rule="evenodd">
        <circle cx="33" cy="33" r="33" fill="#FFF"/>
        <path fill="#9B9B9B" fill-rule="nonzero" d="M14 27.2h40V47H14V27.2zm1.818 1.8v16.2h36.364V29H15.818zm0-5.4v1.8h36.364v-1.8H15.818zm1.818-3.6v1.8h32.728V20H17.636zm16.595 10.8v1.199c.486.077.883.236 1.192.477.309.24.603.61.883 1.107l-1.204.666c-.363-.652-.836-.978-1.421-.978-.363 0-.663.106-.902.318a1.019 1.019 0 0 0-.358.795c0 .29.096.53.29.721.19.188.572.41 1.149.667.498.224.91.435 1.236.633.325.198.57.388.735.572.465.497.698 1.099.698 1.804a2.87 2.87 0 0 1-.63 1.835c-.416.526-.972.88-1.668 1.064v1.266H33.15v-1.23c-.808-.13-1.423-.405-1.847-.825-.425-.42-.738-1.068-.94-1.945l1.36-.281c.185.62.411 1.062.68 1.327.28.253.652.379 1.117.379.453 0 .832-.145 1.137-.434.3-.286.45-.655.45-1.107 0-.404-.125-.728-.376-.973a3.484 3.484 0 0 0-.565-.4 9.724 9.724 0 0 0-.955-.486c-.799-.355-1.324-.681-1.575-.979-.4-.444-.599-.976-.599-1.596a2.236 2.236 0 0 1 .553-1.507c.179-.206.4-.385.664-.536.263-.15.562-.269.896-.354V30.8h1.08z"/>
    </g>
</svg>
